<svg width="120" height="34" viewBox="0 0 120 34" fill="none" xmlns="http://www.w3.org/2000/svg">
<path d="M11.0898 6.39049L13.5469 1.04297V32.1143L11.3682 32.9985C11.3682 32.9985 11.0898 13.9171 11.0898 6.39049Z" fill="url(#paint0_linear_234_5996)"/>
<path d="M4.45312 8.79368L6.58439 3.83789L6.65828 29.6282L4.47151 27.339C4.47151 27.339 4.45312 15.1213 4.45312 8.79368Z" fill="url(#paint1_linear_234_5996)"/>
<path d="M11.3741 32.1777L11.3517 29.4707C11.3498 22.3687 11.3517 15.2667 11.3349 8.16465L11.348 8.19076V5.85016L9.89303 5.20859L9.89862 5.21978C8.84471 4.76099 7.75536 4.32271 6.58766 3.83594V6.44883C6.5858 13.8455 6.58139 22.1685 6.60191 29.5652C6.69838 29.6786 6.91975 29.8671 6.97011 29.91C7.1697 30.0871 7.37483 30.2484 7.57629 30.42C8.20117 30.9478 8.87269 31.4289 9.55167 31.884C9.90608 32.1208 10.2661 32.3484 10.6317 32.5666C10.6951 32.6039 11.3722 32.9489 11.3741 32.9993C11.3666 32.6244 11.3928 32.6029 11.3741 32.1777Z" fill="url(#paint2_linear_234_5996)"/>
<path d="M23.4422 5.11237V13.6337C23.2948 22.6268 19.6278 28.1196 13.5039 32.135L13.5373 1C14.4905 1.38792 15.3635 1.73668 16.2308 2.0985C18.2771 2.95454 20.3196 3.81805 22.3659 4.66663C22.7241 4.81583 23.0841 4.96503 23.4422 5.11237Z" fill="url(#paint3_linear_234_5996)"/>
<path d="M4.47306 21.8898C4.47306 21.7443 4.47306 21.5988 4.47306 21.4533C4.47306 19.2806 4.47306 17.1284 4.4712 14.9854C4.4712 14.909 4.4712 14.8344 4.4712 14.7579C4.4712 14.2264 4.46933 13.6949 4.46933 13.1652C4.46933 12.7306 4.46747 12.2961 4.46747 11.8653C4.46747 11.6918 4.46747 11.5184 4.46747 11.3449C4.46747 11.1435 4.46747 10.9439 4.4656 10.7444L4.46933 10.7593L4.48239 8.77866L4.17834 8.64065C4.17834 8.64065 4.17834 8.64065 4.17648 8.63878C4.16901 8.63505 4.16155 8.63132 4.15223 8.62759L3.96196 8.53994V8.54367C2.67488 7.96551 1.36356 7.43025 0 6.86328V13.6314C0.0802092 18.4973 1.17889 22.3374 3.14308 25.4725C3.52734 26.0823 3.70268 26.3266 4.1373 26.8973C4.1485 26.9123 4.45627 27.3188 4.4712 27.3319C4.4712 25.81 4.4712 24.2714 4.4712 22.729C4.47306 22.4493 4.47306 22.1695 4.47306 21.8898Z" fill="url(#paint4_linear_234_5996)"/>
<path d="M28.5425 16V4.28418H33.1117C34.1382 4.28418 35.0141 4.44598 35.7394 4.76956C36.4647 5.09313 37.0225 5.56177 37.4131 6.17545C37.8036 6.78914 37.9989 7.51998 37.9989 8.36798C37.9989 9.21599 37.8036 9.94683 37.4131 10.5605C37.0225 11.163 36.4647 11.6317 35.7394 11.9664C35.0141 12.29 34.1382 12.4518 33.1117 12.4518H29.4631L30.2162 11.6651V16H28.5425ZM30.2162 11.8325L29.4631 10.9957H33.0615C34.1326 10.9957 34.9416 10.7669 35.4883 10.3095C36.0462 9.85199 36.3252 9.20483 36.3252 8.36798C36.3252 7.53114 36.0462 6.88398 35.4883 6.42651C34.9416 5.96903 34.1326 5.74029 33.0615 5.74029H29.4631L30.2162 4.90345V11.8325ZM43.4712 16.1004C42.5227 16.1004 41.6859 15.9052 40.9606 15.5146C40.2465 15.1241 39.6886 14.5885 39.287 13.9079C38.8964 13.2273 38.7012 12.4462 38.7012 11.5647C38.7012 10.6833 38.8908 9.9022 39.2702 9.22156C39.6607 8.54093 40.1907 8.01093 40.8602 7.63156C41.5409 7.24103 42.3052 7.04577 43.1532 7.04577C44.0123 7.04577 44.7711 7.23545 45.4294 7.61482C46.0877 7.99419 46.601 8.52977 46.9692 9.22156C47.3485 9.9022 47.5382 10.7 47.5382 11.6149C47.5382 11.6819 47.5327 11.76 47.5215 11.8493C47.5215 11.9385 47.5159 12.0222 47.5048 12.1003H39.9564V10.9455H46.6679L46.0152 11.3471C46.0263 10.7781 45.9092 10.2704 45.6637 9.82409C45.4182 9.37778 45.0779 9.03188 44.6428 8.78641C44.2188 8.52977 43.7222 8.40146 43.1532 8.40146C42.5953 8.40146 42.0987 8.52977 41.6636 8.78641C41.2284 9.03188 40.8881 9.38335 40.6426 9.84083C40.3972 10.2871 40.2744 10.8004 40.2744 11.3806V11.6484C40.2744 12.2398 40.4083 12.7698 40.6761 13.2384C40.9551 13.6959 41.34 14.0529 41.831 14.3096C42.3219 14.5662 42.8854 14.6945 43.5214 14.6945C44.0458 14.6945 44.52 14.6053 44.944 14.4267C45.3792 14.2482 45.7585 13.9804 46.0821 13.6234L46.9692 14.661C46.5675 15.1297 46.0654 15.4867 45.4629 15.7322C44.8715 15.9777 44.2076 16.1004 43.4712 16.1004ZM49.0999 16V7.12945H50.6397V9.53957L50.489 8.93704C50.7345 8.32335 51.1473 7.85472 51.7276 7.53114C52.3078 7.20756 53.0219 7.04577 53.8699 7.04577V8.6023C53.8029 8.59114 53.736 8.58556 53.669 8.58556C53.6132 8.58556 53.5574 8.58556 53.5017 8.58556C52.6425 8.58556 51.9619 8.8422 51.4598 9.35546C50.9577 9.86872 50.7066 10.6107 50.7066 11.5815V16H49.0999ZM66.2773 7.04577C66.9914 7.04577 67.6218 7.18524 68.1685 7.46419C68.7153 7.74314 69.1393 8.16714 69.4405 8.73619C69.7529 9.30525 69.9092 10.0249 69.9092 10.8953V16H68.3024V11.0794C68.3024 10.2202 68.1016 9.57304 67.6999 9.13788C67.2982 8.70272 66.7347 8.48514 66.0095 8.48514C65.4739 8.48514 65.0053 8.59672 64.6036 8.81988C64.2019 9.04304 63.8895 9.3722 63.6663 9.80736C63.4543 10.2425 63.3483 10.7837 63.3483 11.4308V16H61.7416V11.0794C61.7416 10.2202 61.5407 9.57304 61.139 9.13788C60.7485 8.70272 60.185 8.48514 59.4486 8.48514C58.9242 8.48514 58.4611 8.59672 58.0595 8.81988C57.6578 9.04304 57.3453 9.3722 57.1222 9.80736C56.899 10.2425 56.7874 10.7837 56.7874 11.4308V16H55.1807V7.12945H56.7205V9.48935L56.4694 8.88683C56.7484 8.30661 57.178 7.85472 57.7582 7.53114C58.3384 7.20756 59.0135 7.04577 59.7833 7.04577C60.6314 7.04577 61.3622 7.25777 61.9759 7.68177C62.5896 8.09461 62.9913 8.72504 63.1809 9.57304L62.5282 9.30525C62.796 8.62462 63.2646 8.07788 63.9341 7.66503C64.6036 7.25219 65.3846 7.04577 66.2773 7.04577ZM76.0791 19.3474C75.2645 19.3474 74.4723 19.2302 73.7024 18.9959C72.9437 18.7727 72.3244 18.4492 71.8446 18.0252L72.6145 16.7866C73.0274 17.1437 73.535 17.4226 74.1376 17.6235C74.7401 17.8355 75.3705 17.9415 76.0288 17.9415C77.0777 17.9415 77.8476 17.696 78.3385 17.2051C78.8295 16.7141 79.075 15.9665 79.075 14.9623V13.0878L79.2423 11.3304L79.1586 9.5563V7.12945H80.6817V14.7949C80.6817 16.3571 80.2912 17.5063 79.5101 18.2427C78.7291 18.9792 77.5854 19.3474 76.0791 19.3474ZM75.8782 15.6318C75.0191 15.6318 74.2492 15.4533 73.5685 15.0962C72.899 14.728 72.3635 14.2203 71.9618 13.5732C71.5713 12.926 71.376 12.1784 71.376 11.3304C71.376 10.4713 71.5713 9.72367 71.9618 9.08767C72.3635 8.44051 72.899 7.9384 73.5685 7.58135C74.2492 7.2243 75.0191 7.04577 75.8782 7.04577C76.6369 7.04577 77.3287 7.20198 77.9536 7.5144C78.5784 7.81567 79.075 8.2843 79.4432 8.9203C79.8225 9.5563 80.0122 10.3597 80.0122 11.3304C80.0122 12.29 79.8225 13.0878 79.4432 13.7238C79.075 14.3598 78.5784 14.8396 77.9536 15.1632C77.3287 15.4756 76.6369 15.6318 75.8782 15.6318ZM76.0623 14.2259C76.6537 14.2259 77.1781 14.1032 77.6356 13.8577C78.0931 13.6122 78.4501 13.2719 78.7067 12.8367C78.9745 12.4016 79.1084 11.8995 79.1084 11.3304C79.1084 10.7614 78.9745 10.2593 78.7067 9.82409C78.4501 9.38893 78.0931 9.0542 77.6356 8.81988C77.1781 8.5744 76.6537 8.45167 76.0623 8.45167C75.4709 8.45167 74.9409 8.5744 74.4723 8.81988C74.0148 9.0542 73.6522 9.38893 73.3844 9.82409C73.1278 10.2593 72.9995 10.7614 72.9995 11.3304C72.9995 11.8995 73.1278 12.4016 73.3844 12.8367C73.6522 13.2719 74.0148 13.6122 74.4723 13.8577C74.9409 14.1032 75.4709 14.2259 76.0623 14.2259ZM86.8146 16.1004C86.0558 16.1004 85.3864 15.9609 84.8062 15.682C84.2371 15.4031 83.7908 14.9791 83.4672 14.41C83.1548 13.8298 82.9986 13.1045 82.9986 12.2342V7.12945H84.6053V12.0501C84.6053 12.9204 84.8117 13.5732 85.2246 14.0083C85.6486 14.4435 86.24 14.661 86.9987 14.661C87.5566 14.661 88.042 14.5495 88.4548 14.3263C88.8676 14.092 89.1856 13.7573 89.4088 13.3221C89.632 12.8758 89.7435 12.3402 89.7435 11.7154V7.12945H91.3503V16H89.8272V13.6066L90.0783 14.2426C89.7882 14.834 89.353 15.2915 88.7728 15.6151C88.1926 15.9386 87.5398 16.1004 86.8146 16.1004ZM99.246 16V14.1255L99.1623 13.774V10.5773C99.1623 9.89662 98.9615 9.3722 98.5598 9.00399C98.1693 8.62462 97.5779 8.43493 96.7857 8.43493C96.2613 8.43493 95.748 8.52419 95.2459 8.70272C94.7438 8.87009 94.3198 9.09883 93.9739 9.38893L93.3044 8.18388C93.7619 7.81567 94.3086 7.53672 94.9446 7.34703C95.5918 7.14619 96.2669 7.04577 96.9698 7.04577C98.186 7.04577 99.1233 7.34145 99.7816 7.93282C100.44 8.52419 100.769 9.42799 100.769 10.6442V16H99.246ZM96.3338 16.1004C95.6755 16.1004 95.0953 15.9888 94.5932 15.7657C94.1022 15.5425 93.7229 15.2357 93.4551 14.8452C93.1873 14.4435 93.0534 13.9916 93.0534 13.4895C93.0534 13.0097 93.165 12.5745 93.3881 12.184C93.6224 11.7935 93.9962 11.481 94.5095 11.2467C95.0339 11.0124 95.7369 10.8953 96.6183 10.8953H99.4301V12.0501H96.6853C95.8819 12.0501 95.3408 12.184 95.0618 12.4518C94.7829 12.7196 94.6434 13.0432 94.6434 13.4225C94.6434 13.8577 94.8163 14.2092 95.1622 14.4769C95.5081 14.7336 95.9879 14.8619 96.6016 14.8619C97.2041 14.8619 97.7285 14.728 98.1749 14.4602C98.6323 14.1924 98.9615 13.8019 99.1623 13.2886L99.4803 14.3933C99.2683 14.9177 98.8946 15.3361 98.359 15.6485C97.8234 15.9498 97.1483 16.1004 96.3338 16.1004ZM103.073 16V7.12945H104.613V9.53957L104.462 8.93704C104.708 8.32335 105.12 7.85472 105.701 7.53114C106.281 7.20756 106.995 7.04577 107.843 7.04577V8.6023C107.776 8.59114 107.709 8.58556 107.642 8.58556C107.586 8.58556 107.531 8.58556 107.475 8.58556C106.616 8.58556 105.935 8.8422 105.433 9.35546C104.931 9.86872 104.68 10.6107 104.68 11.5815V16H103.073ZM112.738 16.1004C111.878 16.1004 111.108 15.9107 110.428 15.5314C109.758 15.152 109.228 14.622 108.838 13.9414C108.447 13.2607 108.252 12.4685 108.252 11.5647C108.252 10.6609 108.447 9.8743 108.838 9.20483C109.228 8.52419 109.758 7.99419 110.428 7.61482C111.108 7.23545 111.878 7.04577 112.738 7.04577C113.485 7.04577 114.16 7.21314 114.763 7.54788C115.365 7.88261 115.845 8.38472 116.202 9.0542C116.57 9.72367 116.754 10.5605 116.754 11.5647C116.754 12.5689 116.576 13.4058 116.219 14.0753C115.873 14.7447 115.399 15.2524 114.796 15.5983C114.194 15.9331 113.507 16.1004 112.738 16.1004ZM112.871 14.6945C113.429 14.6945 113.931 14.5662 114.378 14.3096C114.835 14.0529 115.192 13.6903 115.449 13.2217C115.717 12.7419 115.851 12.1896 115.851 11.5647C115.851 10.9287 115.717 10.382 115.449 9.92451C115.192 9.45588 114.835 9.09325 114.378 8.83662C113.931 8.57998 113.429 8.45167 112.871 8.45167C112.302 8.45167 111.795 8.57998 111.348 8.83662C110.902 9.09325 110.545 9.45588 110.277 9.92451C110.009 10.382 109.876 10.9287 109.876 11.5647C109.876 12.1896 110.009 12.7419 110.277 13.2217C110.545 13.6903 110.902 14.0529 111.348 14.3096C111.795 14.5662 112.302 14.6945 112.871 14.6945ZM115.901 16V13.6066L116.001 11.548L115.834 9.48935V3.58124H117.441V16H115.901Z" fill="white"/>
<path d="M83.5552 31V23.3H87.1962C88.0468 23.3 88.7948 23.4577 89.4402 23.773C90.0855 24.0883 90.5878 24.532 90.9472 25.104C91.3138 25.676 91.4972 26.358 91.4972 27.15C91.4972 27.9347 91.3138 28.6167 90.9472 29.196C90.5878 29.768 90.0855 30.2117 89.4402 30.527C88.7948 30.8423 88.0468 31 87.1962 31H83.5552ZM85.7332 29.262H87.1082C87.5482 29.262 87.9295 29.1813 88.2522 29.02C88.5822 28.8513 88.8388 28.6093 89.0222 28.294C89.2055 27.9713 89.2972 27.59 89.2972 27.15C89.2972 26.7027 89.2055 26.3213 89.0222 26.006C88.8388 25.6907 88.5822 25.4523 88.2522 25.291C87.9295 25.1223 87.5482 25.038 87.1082 25.038H85.7332V29.262ZM97.406 31.154C96.79 31.154 96.2217 31.055 95.701 30.857C95.1804 30.659 94.7257 30.3803 94.337 30.021C93.9557 29.6543 93.6587 29.229 93.446 28.745C93.2334 28.261 93.127 27.7293 93.127 27.15C93.127 26.5707 93.2334 26.039 93.446 25.555C93.6587 25.071 93.9557 24.6493 94.337 24.29C94.7257 23.9233 95.1804 23.641 95.701 23.443C96.2217 23.245 96.79 23.146 97.406 23.146C98.0294 23.146 98.5977 23.245 99.111 23.443C99.6317 23.641 100.083 23.9233 100.464 24.29C100.845 24.6493 101.142 25.071 101.355 25.555C101.575 26.039 101.685 26.5707 101.685 27.15C101.685 27.7293 101.575 28.2647 101.355 28.756C101.142 29.24 100.845 29.6617 100.464 30.021C100.083 30.3803 99.6317 30.659 99.111 30.857C98.5977 31.055 98.0294 31.154 97.406 31.154ZM97.406 29.35C97.6994 29.35 97.9707 29.2987 98.22 29.196C98.4767 29.0933 98.6967 28.9467 98.88 28.756C99.0707 28.558 99.2174 28.3233 99.32 28.052C99.43 27.7807 99.485 27.48 99.485 27.15C99.485 26.8127 99.43 26.512 99.32 26.248C99.2174 25.9767 99.0707 25.7457 98.88 25.555C98.6967 25.357 98.4767 25.2067 98.22 25.104C97.9707 25.0013 97.6994 24.95 97.406 24.95C97.1127 24.95 96.8377 25.0013 96.581 25.104C96.3317 25.2067 96.1117 25.357 95.921 25.555C95.7377 25.7457 95.591 25.9767 95.481 26.248C95.3784 26.512 95.327 26.8127 95.327 27.15C95.327 27.48 95.3784 27.7807 95.481 28.052C95.591 28.3233 95.7377 28.558 95.921 28.756C96.1117 28.9467 96.3317 29.0933 96.581 29.196C96.8377 29.2987 97.1127 29.35 97.406 29.35ZM107.545 31.154C106.936 31.154 106.371 31.0587 105.851 30.868C105.337 30.67 104.89 30.3913 104.509 30.032C104.135 29.6727 103.841 29.251 103.629 28.767C103.416 28.2757 103.31 27.7367 103.31 27.15C103.31 26.5633 103.416 26.028 103.629 25.544C103.841 25.0527 104.135 24.6273 104.509 24.268C104.89 23.9087 105.337 23.6337 105.851 23.443C106.371 23.245 106.936 23.146 107.545 23.146C108.256 23.146 108.89 23.2707 109.448 23.52C110.012 23.7693 110.482 24.1287 110.856 24.598L109.47 25.852C109.22 25.5587 108.945 25.335 108.645 25.181C108.351 25.027 108.021 24.95 107.655 24.95C107.339 24.95 107.05 25.0013 106.786 25.104C106.522 25.2067 106.294 25.357 106.104 25.555C105.92 25.7457 105.774 25.9767 105.664 26.248C105.561 26.5193 105.51 26.82 105.51 27.15C105.51 27.48 105.561 27.7807 105.664 28.052C105.774 28.3233 105.92 28.558 106.104 28.756C106.294 28.9467 106.522 29.0933 106.786 29.196C107.05 29.2987 107.339 29.35 107.655 29.35C108.021 29.35 108.351 29.273 108.645 29.119C108.945 28.965 109.22 28.7413 109.47 28.448L110.856 29.702C110.482 30.164 110.012 30.5233 109.448 30.78C108.89 31.0293 108.256 31.154 107.545 31.154ZM115.338 31.154C114.707 31.154 114.098 31.077 113.512 30.923C112.932 30.7617 112.459 30.5563 112.093 30.307L112.808 28.701C113.152 28.921 113.548 29.1043 113.996 29.251C114.45 29.3903 114.901 29.46 115.349 29.46C115.649 29.46 115.891 29.4343 116.075 29.383C116.258 29.3243 116.39 29.251 116.471 29.163C116.559 29.0677 116.603 28.9577 116.603 28.833C116.603 28.657 116.522 28.5177 116.361 28.415C116.199 28.3123 115.99 28.228 115.734 28.162C115.477 28.096 115.191 28.03 114.876 27.964C114.568 27.898 114.256 27.8137 113.941 27.711C113.633 27.6083 113.35 27.4763 113.094 27.315C112.837 27.1463 112.628 26.93 112.467 26.666C112.305 26.3947 112.225 26.0537 112.225 25.643C112.225 25.181 112.349 24.763 112.599 24.389C112.855 24.015 113.237 23.7143 113.743 23.487C114.249 23.2597 114.879 23.146 115.635 23.146C116.141 23.146 116.636 23.2047 117.12 23.322C117.611 23.432 118.047 23.597 118.429 23.817L117.758 25.434C117.391 25.236 117.028 25.0893 116.669 24.994C116.309 24.8913 115.961 24.84 115.624 24.84C115.323 24.84 115.081 24.873 114.898 24.939C114.714 24.9977 114.582 25.0783 114.502 25.181C114.421 25.2837 114.381 25.401 114.381 25.533C114.381 25.7017 114.458 25.8373 114.612 25.94C114.773 26.0353 114.982 26.116 115.239 26.182C115.503 26.2407 115.789 26.303 116.097 26.369C116.412 26.435 116.724 26.5193 117.032 26.622C117.347 26.7173 117.633 26.8493 117.89 27.018C118.146 27.1793 118.352 27.3957 118.506 27.667C118.667 27.931 118.748 28.2647 118.748 28.668C118.748 29.1153 118.619 29.5297 118.363 29.911C118.113 30.285 117.736 30.5857 117.23 30.813C116.731 31.0403 116.1 31.154 115.338 31.154Z" fill="white"/>
<defs>
<linearGradient id="paint0_linear_234_5996" x1="12.3272" y1="1.04297" x2="12.3272" y2="32.0726" gradientUnits="userSpaceOnUse">
<stop stop-color="#B94848"/>
<stop offset="1" stop-color="#851287"/>
</linearGradient>
<linearGradient id="paint1_linear_234_5996" x1="5.34704" y1="3.83768" x2="5.34704" y2="29.9245" gradientUnits="userSpaceOnUse">
<stop stop-color="#B94848"/>
<stop offset="1" stop-color="#851287"/>
</linearGradient>
<linearGradient id="paint2_linear_234_5996" x1="8.97996" y1="3.83594" x2="16.6696" y2="33.0019" gradientUnits="userSpaceOnUse">
<stop stop-color="#F25E79"/>
<stop offset="1" stop-color="#C52CF1"/>
</linearGradient>
<linearGradient id="paint3_linear_234_5996" x1="13.5374" y1="-7.6003" x2="18.4831" y2="32.1336" gradientUnits="userSpaceOnUse">
<stop stop-color="#F05C80"/>
<stop offset="1" stop-color="#CC34DF"/>
</linearGradient>
<linearGradient id="paint4_linear_234_5996" x1="-10.0667" y1="-1.18433" x2="8.21253" y2="35.2391" gradientUnits="userSpaceOnUse">
<stop stop-color="#FFD83E"/>
<stop offset="1" stop-color="#D038D7"/>
</linearGradient>
</defs>
</svg>
