<svg width="120" height="32" viewBox="0 0 120 32" fill="none" xmlns="http://www.w3.org/2000/svg">
<path d="M11.0917 5.39006L13.5488 0.0425415V31.1139L11.37 31.9981C11.37 31.9981 11.0917 12.9166 11.0917 5.39006Z" fill="url(#paint0_linear_103_126)"/>
<path d="M4.453 7.79276L6.58427 2.83698L6.65816 28.6273L4.47139 26.3381C4.47139 26.3381 4.453 14.1204 4.453 7.79276Z" fill="url(#paint1_linear_103_126)"/>
<path d="M11.3729 31.1784L11.3505 28.4714C11.3486 21.3694 11.3505 14.2674 11.3337 7.16538L11.3468 7.1915V4.85089L9.89181 4.20933L9.8974 4.22052C8.84349 3.76172 7.75414 3.32344 6.58644 2.83667V5.44956C6.58457 12.8462 6.58017 21.1693 6.60069 28.5659C6.69716 28.6793 6.91853 28.8678 6.96889 28.9107C7.16848 29.0879 7.37361 29.2491 7.57506 29.4207C8.19995 29.9485 8.87147 30.4297 9.55045 30.8847C9.90486 31.1216 10.2649 31.3491 10.6305 31.5673C10.6939 31.6046 11.371 31.9497 11.3729 32C11.3654 31.6251 11.3915 31.6036 11.3729 31.1784Z" fill="url(#paint2_linear_103_126)"/>
<path d="M23.4433 4.11237V12.6337C23.2959 21.6268 19.6289 27.1196 13.505 31.135L13.5384 0C14.4916 0.387924 15.3646 0.736683 16.2319 1.0985C18.2782 1.95454 20.3207 2.81805 22.367 3.66663C22.7252 3.81583 23.0852 3.96503 23.4433 4.11237Z" fill="url(#paint3_linear_103_126)"/>
<path d="M4.47306 20.8902C4.47306 20.7448 4.47306 20.5993 4.47306 20.4538C4.47306 18.2811 4.47306 16.1288 4.4712 13.9859C4.4712 13.9095 4.4712 13.8349 4.4712 13.7584C4.4712 13.2269 4.46933 12.6953 4.46933 12.1657C4.46933 11.7311 4.46747 11.2966 4.46747 10.8658C4.46747 10.6923 4.46747 10.5189 4.46747 10.3454C4.46747 10.144 4.46747 9.94444 4.4656 9.74488L4.46933 9.7598L4.48239 7.77915L4.17834 7.64113C4.17834 7.64113 4.17834 7.64113 4.17648 7.63927C4.16901 7.63554 4.16155 7.63181 4.15223 7.62808L3.96196 7.54042V7.54415C2.67488 6.966 1.36356 6.43074 0 5.86377V12.6319C0.0802092 17.4978 1.17889 21.3379 3.14308 24.473C3.52734 25.0828 3.70268 25.3271 4.1373 25.8978C4.1485 25.9127 4.45627 26.3193 4.4712 26.3324C4.4712 24.8105 4.4712 23.2719 4.4712 21.7295C4.47306 21.4498 4.47306 21.17 4.47306 20.8902Z" fill="url(#paint4_linear_103_126)"/>
<path d="M28.5413 22V10.2842H33.1105C34.137 10.2842 35.0129 10.446 35.7382 10.7696C36.4634 11.0931 37.0213 11.5618 37.4119 12.1755C37.8024 12.7891 37.9976 13.52 37.9976 14.368C37.9976 15.216 37.8024 15.9468 37.4119 16.5605C37.0213 17.163 36.4634 17.6317 35.7382 17.9664C35.0129 18.29 34.137 18.4518 33.1105 18.4518H29.4618L30.215 17.6651V22H28.5413ZM30.215 17.8325L29.4618 16.9957H33.0603C34.1314 16.9957 34.9404 16.7669 35.4871 16.3095C36.045 15.852 36.324 15.2048 36.324 14.368C36.324 13.5311 36.045 12.884 35.4871 12.4265C34.9404 11.969 34.1314 11.7403 33.0603 11.7403H29.4618L30.215 10.9034V17.8325ZM43.4699 22.1004C42.5215 22.1004 41.6847 21.9052 40.9594 21.5146C40.2453 21.1241 39.6874 20.5885 39.2857 19.9079C38.8952 19.2273 38.6999 18.4462 38.6999 17.5647C38.6999 16.6833 38.8896 15.9022 39.269 15.2216C39.6595 14.5409 40.1895 14.0109 40.859 13.6316C41.5396 13.241 42.3039 13.0458 43.1519 13.0458C44.0111 13.0458 44.7698 13.2355 45.4282 13.6148C46.0865 13.9942 46.5997 14.5298 46.968 15.2216C47.3473 15.9022 47.537 16.7 47.537 17.6149C47.537 17.6819 47.5314 17.76 47.5203 17.8493C47.5203 17.9385 47.5147 18.0222 47.5035 18.1003H39.9552V16.9455H46.6667L46.014 17.3471C46.0251 16.7781 45.908 16.2704 45.6625 15.8241C45.417 15.3778 45.0767 15.0319 44.6415 14.7864C44.2175 14.5298 43.721 14.4015 43.1519 14.4015C42.5941 14.4015 42.0975 14.5298 41.6624 14.7864C41.2272 15.0319 40.8869 15.3834 40.6414 15.8408C40.3959 16.2871 40.2732 16.8004 40.2732 17.3806V17.6484C40.2732 18.2398 40.4071 18.7698 40.6749 19.2384C40.9538 19.6959 41.3388 20.0529 41.8297 20.3096C42.3207 20.5662 42.8842 20.6945 43.5202 20.6945C44.0446 20.6945 44.5188 20.6053 44.9428 20.4267C45.378 20.2482 45.7573 19.9804 46.0809 19.6234L46.968 20.661C46.5663 21.1297 46.0642 21.4867 45.4616 21.7322C44.8703 21.9777 44.2064 22.1004 43.4699 22.1004ZM49.0986 22V13.1295H50.6384V15.5396L50.4878 14.937C50.7333 14.3234 51.1461 13.8547 51.7263 13.5311C52.3065 13.2076 53.0206 13.0458 53.8687 13.0458V14.6023C53.8017 14.5911 53.7348 14.5856 53.6678 14.5856C53.612 14.5856 53.5562 14.5856 53.5004 14.5856C52.6413 14.5856 51.9606 14.8422 51.4585 15.3555C50.9564 15.8687 50.7054 16.6107 50.7054 17.5815V22H49.0986ZM66.276 13.0458C66.9901 13.0458 67.6206 13.1852 68.1673 13.4642C68.714 13.7431 69.138 14.1671 69.4393 14.7362C69.7517 15.3052 69.9079 16.0249 69.9079 16.8953V22H68.3012V17.0794C68.3012 16.2202 68.1004 15.573 67.6987 15.1379C67.297 14.7027 66.7335 14.4851 66.0082 14.4851C65.4727 14.4851 65.004 14.5967 64.6023 14.8199C64.2007 15.043 63.8882 15.3722 63.6651 15.8074C63.4531 16.2425 63.3471 16.7837 63.3471 17.4308V22H61.7403V17.0794C61.7403 16.2202 61.5395 15.573 61.1378 15.1379C60.7473 14.7027 60.1838 14.4851 59.4474 14.4851C58.923 14.4851 58.4599 14.5967 58.0582 14.8199C57.6565 15.043 57.3441 15.3722 57.121 15.8074C56.8978 16.2425 56.7862 16.7837 56.7862 17.4308V22H55.1795V13.1295H56.7193V15.4894L56.4682 14.8868C56.7472 14.3066 57.1768 13.8547 57.757 13.5311C58.3372 13.2076 59.0122 13.0458 59.7821 13.0458C60.6301 13.0458 61.361 13.2578 61.9747 13.6818C62.5883 14.0946 62.99 14.725 63.1797 15.573L62.527 15.3052C62.7948 14.6246 63.2634 14.0779 63.9329 13.665C64.6023 13.2522 65.3834 13.0458 66.276 13.0458ZM76.0778 25.3474C75.2633 25.3474 74.4711 25.2302 73.7012 24.9959C72.9425 24.7727 72.3232 24.4492 71.8434 24.0252L72.6133 22.7866C73.0261 23.1437 73.5338 23.4226 74.1364 23.6235C74.7389 23.8355 75.3693 23.9415 76.0276 23.9415C77.0765 23.9415 77.8464 23.696 78.3373 23.2051C78.8283 22.7141 79.0737 21.9665 79.0737 20.9623V19.0878L79.2411 17.3304L79.1574 15.5563V13.1295H80.6805V20.7949C80.6805 22.3571 80.2899 23.5063 79.5089 24.2427C78.7278 24.9792 77.5842 25.3474 76.0778 25.3474ZM75.877 21.6318C75.0178 21.6318 74.2479 21.4533 73.5673 21.0962C72.8978 20.728 72.3622 20.2203 71.9606 19.5732C71.57 18.926 71.3748 18.1784 71.3748 17.3304C71.3748 16.4713 71.57 15.7237 71.9606 15.0877C72.3622 14.4405 72.8978 13.9384 73.5673 13.5814C74.2479 13.2243 75.0178 13.0458 75.877 13.0458C76.6357 13.0458 77.3275 13.202 77.9524 13.5144C78.5772 13.8157 79.0737 14.2843 79.4419 14.9203C79.8213 15.5563 80.011 16.3597 80.011 17.3304C80.011 18.29 79.8213 19.0878 79.4419 19.7238C79.0737 20.3598 78.5772 20.8396 77.9524 21.1632C77.3275 21.4756 76.6357 21.6318 75.877 21.6318ZM76.0611 20.2259C76.6525 20.2259 77.1769 20.1032 77.6344 19.8577C78.0918 19.6122 78.4489 19.2719 78.7055 18.8367C78.9733 18.4016 79.1072 17.8995 79.1072 17.3304C79.1072 16.7614 78.9733 16.2593 78.7055 15.8241C78.4489 15.3889 78.0918 15.0542 77.6344 14.8199C77.1769 14.5744 76.6525 14.4517 76.0611 14.4517C75.4697 14.4517 74.9397 14.5744 74.4711 14.8199C74.0136 15.0542 73.651 15.3889 73.3832 15.8241C73.1266 16.2593 72.9982 16.7614 72.9982 17.3304C72.9982 17.8995 73.1266 18.4016 73.3832 18.8367C73.651 19.2719 74.0136 19.6122 74.4711 19.8577C74.9397 20.1032 75.4697 20.2259 76.0611 20.2259ZM86.8134 22.1004C86.0546 22.1004 85.3851 21.9609 84.8049 21.682C84.2359 21.4031 83.7896 20.9791 83.466 20.41C83.1536 19.8298 82.9974 19.1045 82.9974 18.2342V13.1295H84.6041V18.0501C84.6041 18.9204 84.8105 19.5732 85.2234 20.0083C85.6474 20.4435 86.2387 20.661 86.9975 20.661C87.5554 20.661 88.0407 20.5495 88.4536 20.3263C88.8664 20.092 89.1844 19.7573 89.4076 19.3221C89.6307 18.8758 89.7423 18.3402 89.7423 17.7154V13.1295H91.3491V22H89.826V19.6066L90.0771 20.2426C89.7869 20.834 89.3518 21.2915 88.7716 21.6151C88.1914 21.9386 87.5386 22.1004 86.8134 22.1004ZM99.2448 22V20.1255L99.1611 19.774V16.5773C99.1611 15.8966 98.9603 15.3722 98.5586 15.004C98.1681 14.6246 97.5767 14.4349 96.7845 14.4349C96.2601 14.4349 95.7468 14.5242 95.2447 14.7027C94.7426 14.8701 94.3186 15.0988 93.9727 15.3889L93.3032 14.1839C93.7607 13.8157 94.3074 13.5367 94.9434 13.347C95.5906 13.1462 96.2656 13.0458 96.9686 13.0458C98.1848 13.0458 99.1221 13.3415 99.7804 13.9328C100.439 14.5242 100.768 15.428 100.768 16.6442V22H99.2448ZM96.3326 22.1004C95.6743 22.1004 95.0941 21.9888 94.592 21.7657C94.101 21.5425 93.7216 21.2357 93.4538 20.8452C93.1861 20.4435 93.0522 19.9916 93.0522 19.4895C93.0522 19.0097 93.1637 18.5745 93.3869 18.184C93.6212 17.7935 93.995 17.481 94.5083 17.2467C95.0327 17.0124 95.7356 16.8953 96.6171 16.8953H99.4289V18.0501H96.6841C95.8807 18.0501 95.3395 18.184 95.0606 18.4518C94.7816 18.7196 94.6422 19.0432 94.6422 19.4225C94.6422 19.8577 94.8151 20.2092 95.161 20.4769C95.5069 20.7336 95.9867 20.8619 96.6004 20.8619C97.2029 20.8619 97.7273 20.728 98.1736 20.4602C98.6311 20.1924 98.9603 19.8019 99.1611 19.2886L99.4791 20.3933C99.2671 20.9177 98.8933 21.3361 98.3578 21.6485C97.8222 21.9498 97.1471 22.1004 96.3326 22.1004ZM103.072 22V13.1295H104.612V15.5396L104.461 14.937C104.706 14.3234 105.119 13.8547 105.699 13.5311C106.28 13.2076 106.994 13.0458 107.842 13.0458V14.6023C107.775 14.5911 107.708 14.5856 107.641 14.5856C107.585 14.5856 107.529 14.5856 107.474 14.5856C106.614 14.5856 105.934 14.8422 105.432 15.3555C104.93 15.8687 104.679 16.6107 104.679 17.5815V22H103.072ZM112.736 22.1004C111.877 22.1004 111.107 21.9107 110.427 21.5314C109.757 21.152 109.227 20.622 108.837 19.9414C108.446 19.2607 108.251 18.4685 108.251 17.5647C108.251 16.6609 108.446 15.8743 108.837 15.2048C109.227 14.5242 109.757 13.9942 110.427 13.6148C111.107 13.2355 111.877 13.0458 112.736 13.0458C113.484 13.0458 114.159 13.2131 114.761 13.5479C115.364 13.8826 115.844 14.3847 116.201 15.0542C116.569 15.7237 116.753 16.5605 116.753 17.5647C116.753 18.5689 116.575 19.4058 116.218 20.0753C115.872 20.7447 115.397 21.2524 114.795 21.5983C114.192 21.9331 113.506 22.1004 112.736 22.1004ZM112.87 20.6945C113.428 20.6945 113.93 20.5662 114.377 20.3096C114.834 20.0529 115.191 19.6903 115.448 19.2217C115.715 18.7419 115.849 18.1896 115.849 17.5647C115.849 16.9287 115.715 16.382 115.448 15.9245C115.191 15.4559 114.834 15.0932 114.377 14.8366C113.93 14.58 113.428 14.4517 112.87 14.4517C112.301 14.4517 111.793 14.58 111.347 14.8366C110.901 15.0932 110.544 15.4559 110.276 15.9245C110.008 16.382 109.874 16.9287 109.874 17.5647C109.874 18.1896 110.008 18.7419 110.276 19.2217C110.544 19.6903 110.901 20.0529 111.347 20.3096C111.793 20.5662 112.301 20.6945 112.87 20.6945ZM115.9 22V19.6066L116 17.548L115.833 15.4894V9.58124H117.439V22H115.9Z" fill="white"/>
<defs>
<linearGradient id="paint0_linear_103_126" x1="12.329" y1="0.0425415" x2="12.329" y2="31.0722" gradientUnits="userSpaceOnUse">
<stop stop-color="#B94848"/>
<stop offset="1" stop-color="#851287"/>
</linearGradient>
<linearGradient id="paint1_linear_103_126" x1="5.34692" y1="2.83676" x2="5.34692" y2="28.9236" gradientUnits="userSpaceOnUse">
<stop stop-color="#B94848"/>
<stop offset="1" stop-color="#851287"/>
</linearGradient>
<linearGradient id="paint2_linear_103_126" x1="8.97874" y1="2.83667" x2="16.6684" y2="32.0026" gradientUnits="userSpaceOnUse">
<stop stop-color="#F25E79"/>
<stop offset="1" stop-color="#C52CF1"/>
</linearGradient>
<linearGradient id="paint3_linear_103_126" x1="13.5385" y1="-8.6003" x2="18.4842" y2="31.1336" gradientUnits="userSpaceOnUse">
<stop stop-color="#F05C80"/>
<stop offset="1" stop-color="#CC34DF"/>
</linearGradient>
<linearGradient id="paint4_linear_103_126" x1="-10.0667" y1="-2.18384" x2="8.21253" y2="34.2396" gradientUnits="userSpaceOnUse">
<stop stop-color="#FFD83E"/>
<stop offset="1" stop-color="#D038D7"/>
</linearGradient>
</defs>
</svg>
